<svg xmlns="http://www.w3.org/2000/svg" width="1020" height="272" viewBox="0 0 1020 272" role="img" aria-labelledby="title desc">
<title id="title">Calendário de contribuições de Luiz Amaral</title><desc id="desc">Calendário diário dos últimos 12 meses. Cores mais claras indicam mais contribuições.</desc>
<rect x=".5" y=".5" width="1019" height="271" rx="16" fill="#0d1117" stroke="#30363d"/>
<g font-family="Arial, Helvetica, sans-serif"><text x="26" y="36" font-size="19" fill="#e6edf3" font-weight="700" >Um ano construindo</text><text x="26" y="59" font-size="12" fill="#94a3b8" font-weight="400" >180 contribuições nos últimos 12 meses</text><rect x="54.0" y="99.0" width="13.5" height="13.5" rx="3" fill="#161b22"><title>2025-09-28: 0 contribuições</title></rect><rect x="54.0" y="116.5" width="13.5" height="13.5" rx="3" fill="#161b22"><title>2025-09-29: 0 contribuições</title></rect><rect x="54.0" y="134.0" width="13.5" height="13.5" rx="3" fill="#161b22"><title>2025-09-30: 0 contribuições</title></rect><rect x="54.0" y="151.5" width="13.5" height="13.5" rx="3" fill="#161b22"><title>2025-10-01: 0 contribuições</title></rect><rect x="54.0" y="169.0" width="13.5" height="13.5" rx="3" fill="#161b22"><title>2025-10-02: 0 contribuições</title></rect><rect x="54.0" y="186.5" width="13.5" height="13.5" rx="3" fill="#161b22"><title>2025-10-03: 0 contribuições</title></rect><rect x="54.0" y="204.0" width="13.5" height="13.5" rx="3" fill="#161b22"><title>2025-10-04: 0 contribuições</title></rect><text x="71.5" y="86" font-size="10" fill="#94a3b8" font-weight="400" >out</text><rect x="71.5" y="99.0" width="13.5" height="13.5" rx="3" fill="#161b22"><title>2025-10-05: 0 contribuições</title></rect><rect x="71.5" y="116.5" width="13.5" height="13.5" rx="3" fill="#161b22"><title>2025-10-06: 0 contribuições</title></rect><rect x="71.5" y="134.0" width="13.5" height="13.5" rx="3" fill="#161b22"><title>2025-10-07: 0 contribuições</title></rect><rect x="71.5" y="151.5" width="13.5" height="13.5" rx="3" fill="#1a695b"><title>2025-10-08: 3 contribuições</title></rect><rect x="71.5" y="169.0" width="13.5" height="13.5" rx="3" fill="#161b22"><title>2025-10-09: 0 contribuições</title></rect><rect x="71.5" y="186.5" width="13.5" height="13.5" rx="3" fill="#163b37"><title>2025-10-10: 1 contribuições</title></rect><rect x="71.5" y="204.0" width="13.5" height="13.5" rx="3" fill="#161b22"><title>2025-10-11: 0 contribuições</title></rect><rect x="89.0" y="99.0" width="13.5" height="13.5" rx="3" fill="#26a98b"><title>2025-10-12: 7 contribuições</title></rect><rect x="89.0" y="116.5" width="13.5" height="13.5" rx="3" fill="#161b22"><title>2025-10-13: 0 contribuições</title></rect><rect x="89.0" y="134.0" width="13.5" height="13.5" rx="3" fill="#161b22"><title>2025-10-14: 0 contribuições</title></rect><rect x="89.0" y="151.5" width="13.5" height="13.5" rx="3" fill="#161b22"><title>2025-10-15: 0 contribuições</title></rect><rect x="89.0" y="169.0" width="13.5" height="13.5" rx="3" fill="#161b22"><title>2025-10-16: 0 contribuições</title></rect><rect x="89.0" y="186.5" width="13.5" height="13.5" rx="3" fill="#161b22"><title>2025-10-17: 0 contribuições</title></rect><rect x="89.0" y="204.0" width="13.5" height="13.5" rx="3" fill="#161b22"><title>2025-10-18: 0 contribuições</title></rect><rect x="106.5" y="99.0" width="13.5" height="13.5" rx="3" fill="#161b22"><title>2025-10-19: 0 contribuições</title></rect><rect x="106.5" y="116.5" width="13.5" height="13.5" rx="3" fill="#161b22"><title>2025-10-20: 0 contribuições</title></rect><rect x="106.5" y="134.0" width="13.5" height="13.5" rx="3" fill="#161b22"><title>2025-10-21: 0 contribuições</title></rect><rect x="106.5" y="151.5" width="13.5" height="13.5" rx="3" fill="#161b22"><title>2025-10-22: 0 contribuições</title></rect><rect x="106.5" y="169.0" width="13.5" height="13.5" rx="3" fill="#163b37"><title>2025-10-23: 1 contribuições</title></rect><rect x="106.5" y="186.5" width="13.5" height="13.5" rx="3" fill="#161b22"><title>2025-10-24: 0 contribuições</title></rect><rect x="106.5" y="204.0" width="13.5" height="13.5" rx="3" fill="#161b22"><title>2025-10-25: 0 contribuições</title></rect><rect x="124.0" y="99.0" width="13.5" height="13.5" rx="3" fill="#163b37"><title>2025-10-26: 2 contribuições</title></rect><rect x="124.0" y="116.5" width="13.5" height="13.5" rx="3" fill="#161b22"><title>2025-10-27: 0 contribuições</title></rect><rect x="124.0" y="134.0" width="13.5" height="13.5" rx="3" fill="#161b22"><title>2025-10-28: 0 contribuições</title></rect><rect x="124.0" y="151.5" width="13.5" height="13.5" rx="3" fill="#161b22"><title>2025-10-29: 0 contribuições</title></rect><rect x="124.0" y="169.0" width="13.5" height="13.5" rx="3" fill="#161b22"><title>2025-10-30: 0 contribuições</title></rect><rect x="124.0" y="186.5" width="13.5" height="13.5" rx="3" fill="#161b22"><title>2025-10-31: 0 contribuições</title></rect><rect x="124.0" y="204.0" width="13.5" height="13.5" rx="3" fill="#161b22"><title>2025-11-01: 0 contribuições</title></rect><text x="141.5" y="86" font-size="10" fill="#94a3b8" font-weight="400" >nov</text><rect x="141.5" y="99.0" width="13.5" height="13.5" rx="3" fill="#161b22"><title>2025-11-02: 0 contribuições</title></rect><rect x="141.5" y="116.5" width="13.5" height="13.5" rx="3" fill="#161b22"><title>2025-11-03: 0 contribuições</title></rect><rect x="141.5" y="134.0" width="13.5" height="13.5" rx="3" fill="#161b22"><title>2025-11-04: 0 contribuições</title></rect><rect x="141.5" y="151.5" width="13.5" height="13.5" rx="3" fill="#161b22"><title>2025-11-05: 0 contribuições</title></rect><rect x="141.5" y="169.0" width="13.5" height="13.5" rx="3" fill="#163b37"><title>2025-11-06: 1 contribuições</title></rect><rect x="141.5" y="186.5" width="13.5" height="13.5" rx="3" fill="#161b22"><title>2025-11-07: 0 contribuições</title></rect><rect x="141.5" y="204.0" width="13.5" height="13.5" rx="3" fill="#161b22"><title>2025-11-08: 0 contribuições</title></rect><rect x="159.0" y="99.0" width="13.5" height="13.5" rx="3" fill="#161b22"><title>2025-11-09: 0 contribuições</title></rect><rect x="159.0" y="116.5" width="13.5" height="13.5" rx="3" fill="#161b22"><title>2025-11-10: 0 contribuições</title></rect><rect x="159.0" y="134.0" width="13.5" height="13.5" rx="3" fill="#161b22"><title>2025-11-11: 0 contribuições</title></rect><rect x="159.0" y="151.5" width="13.5" height="13.5" rx="3" fill="#161b22"><title>2025-11-12: 0 contribuições</title></rect><rect x="159.0" y="169.0" width="13.5" height="13.5" rx="3" fill="#163b37"><title>2025-11-13: 1 contribuições</title></rect><rect x="159.0" y="186.5" width="13.5" height="13.5" rx="3" fill="#1a695b"><title>2025-11-14: 3 contribuições</title></rect><rect x="159.0" y="204.0" width="13.5" height="13.5" rx="3" fill="#161b22"><title>2025-11-15: 0 contribuições</title></rect><rect x="176.5" y="99.0" width="13.5" height="13.5" rx="3" fill="#161b22"><title>2025-11-16: 0 contribuições</title></rect><rect x="176.5" y="116.5" width="13.5" height="13.5" rx="3" fill="#161b22"><title>2025-11-17: 0 contribuições</title></rect><rect x="176.5" y="134.0" width="13.5" height="13.5" rx="3" fill="#161b22"><title>2025-11-18: 0 contribuições</title></rect><rect x="176.5" y="151.5" width="13.5" height="13.5" rx="3" fill="#161b22"><title>2025-11-19: 0 contribuições</title></rect><rect x="176.5" y="169.0" width="13.5" height="13.5" rx="3" fill="#161b22"><title>2025-11-20: 0 contribuições</title></rect><rect x="176.5" y="186.5" width="13.5" height="13.5" rx="3" fill="#161b22"><title>2025-11-21: 0 contribuições</title></rect><rect x="176.5" y="204.0" width="13.5" height="13.5" rx="3" fill="#161b22"><title>2025-11-22: 0 contribuições</title></rect><rect x="194.0" y="99.0" width="13.5" height="13.5" rx="3" fill="#161b22"><title>2025-11-23: 0 contribuições</title></rect><rect x="194.0" y="116.5" width="13.5" height="13.5" rx="3" fill="#161b22"><title>2025-11-24: 0 contribuições</title></rect><rect x="194.0" y="134.0" width="13.5" height="13.5" rx="3" fill="#161b22"><title>2025-11-25: 0 contribuições</title></rect><rect x="194.0" y="151.5" width="13.5" height="13.5" rx="3" fill="#161b22"><title>2025-11-26: 0 contribuições</title></rect><rect x="194.0" y="169.0" width="13.5" height="13.5" rx="3" fill="#161b22"><title>2025-11-27: 0 contribuições</title></rect><rect x="194.0" y="186.5" width="13.5" height="13.5" rx="3" fill="#161b22"><title>2025-11-28: 0 contribuições</title></rect><rect x="194.0" y="204.0" width="13.5" height="13.5" rx="3" fill="#161b22"><title>2025-11-29: 0 contribuições</title></rect><rect x="211.5" y="99.0" width="13.5" height="13.5" rx="3" fill="#161b22"><title>2025-11-30: 0 contribuições</title></rect><rect x="211.5" y="116.5" width="13.5" height="13.5" rx="3" fill="#161b22"><title>2025-12-01: 0 contribuições</title></rect><rect x="211.5" y="134.0" width="13.5" height="13.5" rx="3" fill="#161b22"><title>2025-12-02: 0 contribuições</title></rect><rect x="211.5" y="151.5" width="13.5" height="13.5" rx="3" fill="#161b22"><title>2025-12-03: 0 contribuições</title></rect><rect x="211.5" y="169.0" width="13.5" height="13.5" rx="3" fill="#161b22"><title>2025-12-04: 0 contribuições</title></rect><rect x="211.5" y="186.5" width="13.5" height="13.5" rx="3" fill="#161b22"><title>2025-12-05: 0 contribuições</title></rect><rect x="211.5" y="204.0" width="13.5" height="13.5" rx="3" fill="#161b22"><title>2025-12-06: 0 contribuições</title></rect><text x="229.0" y="86" font-size="10" fill="#94a3b8" font-weight="400" >dez</text><rect x="229.0" y="99.0" width="13.5" height="13.5" rx="3" fill="#161b22"><title>2025-12-07: 0 contribuições</title></rect><rect x="229.0" y="116.5" width="13.5" height="13.5" rx="3" fill="#161b22"><title>2025-12-08: 0 contribuições</title></rect><rect x="229.0" y="134.0" width="13.5" height="13.5" rx="3" fill="#161b22"><title>2025-12-09: 0 contribuições</title></rect><rect x="229.0" y="151.5" width="13.5" height="13.5" rx="3" fill="#161b22"><title>2025-12-10: 0 contribuições</title></rect><rect x="229.0" y="169.0" width="13.5" height="13.5" rx="3" fill="#161b22"><title>2025-12-11: 0 contribuições</title></rect><rect x="229.0" y="186.5" width="13.5" height="13.5" rx="3" fill="#161b22"><title>2025-12-12: 0 contribuições</title></rect><rect x="229.0" y="204.0" width="13.5" height="13.5" rx="3" fill="#161b22"><title>2025-12-13: 0 contribuições</title></rect><rect x="246.5" y="99.0" width="13.5" height="13.5" rx="3" fill="#161b22"><title>2025-12-14: 0 contribuições</title></rect><rect x="246.5" y="116.5" width="13.5" height="13.5" rx="3" fill="#161b22"><title>2025-12-15: 0 contribuições</title></rect><rect x="246.5" y="134.0" width="13.5" height="13.5" rx="3" fill="#161b22"><title>2025-12-16: 0 contribuições</title></rect><rect x="246.5" y="151.5" width="13.5" height="13.5" rx="3" fill="#1a695b"><title>2025-12-17: 3 contribuições</title></rect><rect x="246.5" y="169.0" width="13.5" height="13.5" rx="3" fill="#161b22"><title>2025-12-18: 0 contribuições</title></rect><rect x="246.5" y="186.5" width="13.5" height="13.5" rx="3" fill="#161b22"><title>2025-12-19: 0 contribuições</title></rect><rect x="246.5" y="204.0" width="13.5" height="13.5" rx="3" fill="#161b22"><title>2025-12-20: 0 contribuições</title></rect><rect x="264.0" y="99.0" width="13.5" height="13.5" rx="3" fill="#161b22"><title>2025-12-21: 0 contribuições</title></rect><rect x="264.0" y="116.5" width="13.5" height="13.5" rx="3" fill="#161b22"><title>2025-12-22: 0 contribuições</title></rect><rect x="264.0" y="134.0" width="13.5" height="13.5" rx="3" fill="#161b22"><title>2025-12-23: 0 contribuições</title></rect><rect x="264.0" y="151.5" width="13.5" height="13.5" rx="3" fill="#161b22"><title>2025-12-24: 0 contribuições</title></rect><rect x="264.0" y="169.0" width="13.5" height="13.5" rx="3" fill="#161b22"><title>2025-12-25: 0 contribuições</title></rect><rect x="264.0" y="186.5" width="13.5" height="13.5" rx="3" fill="#161b22"><title>2025-12-26: 0 contribuições</title></rect><rect x="264.0" y="204.0" width="13.5" height="13.5" rx="3" fill="#161b22"><title>2025-12-27: 0 contribuições</title></rect><rect x="281.5" y="99.0" width="13.5" height="13.5" rx="3" fill="#161b22"><title>2025-12-28: 0 contribuições</title></rect><rect x="281.5" y="116.5" width="13.5" height="13.5" rx="3" fill="#161b22"><title>2025-12-29: 0 contribuições</title></rect><rect x="281.5" y="134.0" width="13.5" height="13.5" rx="3" fill="#161b22"><title>2025-12-30: 0 contribuições</title></rect><rect x="281.5" y="151.5" width="13.5" height="13.5" rx="3" fill="#161b22"><title>2025-12-31: 0 contribuições</title></rect><rect x="281.5" y="169.0" width="13.5" height="13.5" rx="3" fill="#161b22"><title>2026-01-01: 0 contribuições</title></rect><rect x="281.5" y="186.5" width="13.5" height="13.5" rx="3" fill="#161b22"><title>2026-01-02: 0 contribuições</title></rect><rect x="281.5" y="204.0" width="13.5" height="13.5" rx="3" fill="#161b22"><title>2026-01-03: 0 contribuições</title></rect><text x="299.0" y="86" font-size="10" fill="#94a3b8" font-weight="400" >jan</text><rect x="299.0" y="99.0" width="13.5" height="13.5" rx="3" fill="#161b22"><title>2026-01-04: 0 contribuições</title></rect><rect x="299.0" y="116.5" width="13.5" height="13.5" rx="3" fill="#161b22"><title>2026-01-05: 0 contribuições</title></rect><rect x="299.0" y="134.0" width="13.5" height="13.5" rx="3" fill="#161b22"><title>2026-01-06: 0 contribuições</title></rect><rect x="299.0" y="151.5" width="13.5" height="13.5" rx="3" fill="#163b37"><title>2026-01-07: 2 contribuições</title></rect><rect x="299.0" y="169.0" width="13.5" height="13.5" rx="3" fill="#161b22"><title>2026-01-08: 0 contribuições</title></rect><rect x="299.0" y="186.5" width="13.5" height="13.5" rx="3" fill="#161b22"><title>2026-01-09: 0 contribuições</title></rect><rect x="299.0" y="204.0" width="13.5" height="13.5" rx="3" fill="#161b22"><title>2026-01-10: 0 contribuições</title></rect><rect x="316.5" y="99.0" width="13.5" height="13.5" rx="3" fill="#161b22"><title>2026-01-11: 0 contribuições</title></rect><rect x="316.5" y="116.5" width="13.5" height="13.5" rx="3" fill="#161b22"><title>2026-01-12: 0 contribuições</title></rect><rect x="316.5" y="134.0" width="13.5" height="13.5" rx="3" fill="#161b22"><title>2026-01-13: 0 contribuições</title></rect><rect x="316.5" y="151.5" width="13.5" height="13.5" rx="3" fill="#161b22"><title>2026-01-14: 0 contribuições</title></rect><rect x="316.5" y="169.0" width="13.5" height="13.5" rx="3" fill="#161b22"><title>2026-01-15: 0 contribuições</title></rect><rect x="316.5" y="186.5" width="13.5" height="13.5" rx="3" fill="#161b22"><title>2026-01-16: 0 contribuições</title></rect><rect x="316.5" y="204.0" width="13.5" height="13.5" rx="3" fill="#161b22"><title>2026-01-17: 0 contribuições</title></rect><rect x="334.0" y="99.0" width="13.5" height="13.5" rx="3" fill="#161b22"><title>2026-01-18: 0 contribuições</title></rect><rect x="334.0" y="116.5" width="13.5" height="13.5" rx="3" fill="#161b22"><title>2026-01-19: 0 contribuições</title></rect><rect x="334.0" y="134.0" width="13.5" height="13.5" rx="3" fill="#161b22"><title>2026-01-20: 0 contribuições</title></rect><rect x="334.0" y="151.5" width="13.5" height="13.5" rx="3" fill="#161b22"><title>2026-01-21: 0 contribuições</title></rect><rect x="334.0" y="169.0" width="13.5" height="13.5" rx="3" fill="#161b22"><title>2026-01-22: 0 contribuições</title></rect><rect x="334.0" y="186.5" width="13.5" height="13.5" rx="3" fill="#161b22"><title>2026-01-23: 0 contribuições</title></rect><rect x="334.0" y="204.0" width="13.5" height="13.5" rx="3" fill="#161b22"><title>2026-01-24: 0 contribuições</title></rect><rect x="351.5" y="99.0" width="13.5" height="13.5" rx="3" fill="#161b22"><title>2026-01-25: 0 contribuições</title></rect><rect x="351.5" y="116.5" width="13.5" height="13.5" rx="3" fill="#161b22"><title>2026-01-26: 0 contribuições</title></rect><rect x="351.5" y="134.0" width="13.5" height="13.5" rx="3" fill="#161b22"><title>2026-01-27: 0 contribuições</title></rect><rect x="351.5" y="151.5" width="13.5" height="13.5" rx="3" fill="#161b22"><title>2026-01-28: 0 contribuições</title></rect><rect x="351.5" y="169.0" width="13.5" height="13.5" rx="3" fill="#161b22"><title>2026-01-29: 0 contribuições</title></rect><rect x="351.5" y="186.5" width="13.5" height="13.5" rx="3" fill="#161b22"><title>2026-01-30: 0 contribuições</title></rect><rect x="351.5" y="204.0" width="13.5" height="13.5" rx="3" fill="#161b22"><title>2026-01-31: 0 contribuições</title></rect><text x="369.0" y="86" font-size="10" fill="#94a3b8" font-weight="400" >fev</text><rect x="369.0" y="99.0" width="13.5" height="13.5" rx="3" fill="#161b22"><title>2026-02-01: 0 contribuições</title></rect><rect x="369.0" y="116.5" width="13.5" height="13.5" rx="3" fill="#161b22"><title>2026-02-02: 0 contribuições</title></rect><rect x="369.0" y="134.0" width="13.5" height="13.5" rx="3" fill="#161b22"><title>2026-02-03: 0 contribuições</title></rect><rect x="369.0" y="151.5" width="13.5" height="13.5" rx="3" fill="#26a98b"><title>2026-02-04: 7 contribuições</title></rect><rect x="369.0" y="169.0" width="13.5" height="13.5" rx="3" fill="#161b22"><title>2026-02-05: 0 contribuições</title></rect><rect x="369.0" y="186.5" width="13.5" height="13.5" rx="3" fill="#161b22"><title>2026-02-06: 0 contribuições</title></rect><rect x="369.0" y="204.0" width="13.5" height="13.5" rx="3" fill="#161b22"><title>2026-02-07: 0 contribuições</title></rect><rect x="386.5" y="99.0" width="13.5" height="13.5" rx="3" fill="#161b22"><title>2026-02-08: 0 contribuições</title></rect><rect x="386.5" y="116.5" width="13.5" height="13.5" rx="3" fill="#161b22"><title>2026-02-09: 0 contribuições</title></rect><rect x="386.5" y="134.0" width="13.5" height="13.5" rx="3" fill="#163b37"><title>2026-02-10: 1 contribuições</title></rect><rect x="386.5" y="151.5" width="13.5" height="13.5" rx="3" fill="#26a98b"><title>2026-02-11: 7 contribuições</title></rect><rect x="386.5" y="169.0" width="13.5" height="13.5" rx="3" fill="#1a695b"><title>2026-02-12: 3 contribuições</title></rect><rect x="386.5" y="186.5" width="13.5" height="13.5" rx="3" fill="#161b22"><title>2026-02-13: 0 contribuições</title></rect><rect x="386.5" y="204.0" width="13.5" height="13.5" rx="3" fill="#161b22"><title>2026-02-14: 0 contribuições</title></rect><rect x="404.0" y="99.0" width="13.5" height="13.5" rx="3" fill="#161b22"><title>2026-02-15: 0 contribuições</title></rect><rect x="404.0" y="116.5" width="13.5" height="13.5" rx="3" fill="#161b22"><title>2026-02-16: 0 contribuições</title></rect><rect x="404.0" y="134.0" width="13.5" height="13.5" rx="3" fill="#161b22"><title>2026-02-17: 0 contribuições</title></rect><rect x="404.0" y="151.5" width="13.5" height="13.5" rx="3" fill="#161b22"><title>2026-02-18: 0 contribuições</title></rect><rect x="404.0" y="169.0" width="13.5" height="13.5" rx="3" fill="#161b22"><title>2026-02-19: 0 contribuições</title></rect><rect x="404.0" y="186.5" width="13.5" height="13.5" rx="3" fill="#161b22"><title>2026-02-20: 0 contribuições</title></rect><rect x="404.0" y="204.0" width="13.5" height="13.5" rx="3" fill="#161b22"><title>2026-02-21: 0 contribuições</title></rect><rect x="421.5" y="99.0" width="13.5" height="13.5" rx="3" fill="#161b22"><title>2026-02-22: 0 contribuições</title></rect><rect x="421.5" y="116.5" width="13.5" height="13.5" rx="3" fill="#161b22"><title>2026-02-23: 0 contribuições</title></rect><rect x="421.5" y="134.0" width="13.5" height="13.5" rx="3" fill="#161b22"><title>2026-02-24: 0 contribuições</title></rect><rect x="421.5" y="151.5" width="13.5" height="13.5" rx="3" fill="#161b22"><title>2026-02-25: 0 contribuições</title></rect><rect x="421.5" y="169.0" width="13.5" height="13.5" rx="3" fill="#163b37"><title>2026-02-26: 1 contribuições</title></rect><rect x="421.5" y="186.5" width="13.5" height="13.5" rx="3" fill="#161b22"><title>2026-02-27: 0 contribuições</title></rect><rect x="421.5" y="204.0" width="13.5" height="13.5" rx="3" fill="#161b22"><title>2026-02-28: 0 contribuições</title></rect><text x="439.0" y="86" font-size="10" fill="#94a3b8" font-weight="400" >mar</text><rect x="439.0" y="99.0" width="13.5" height="13.5" rx="3" fill="#1a695b"><title>2026-03-01: 5 contribuições</title></rect><rect x="439.0" y="116.5" width="13.5" height="13.5" rx="3" fill="#161b22"><title>2026-03-02: 0 contribuições</title></rect><rect x="439.0" y="134.0" width="13.5" height="13.5" rx="3" fill="#161b22"><title>2026-03-03: 0 contribuições</title></rect><rect x="439.0" y="151.5" width="13.5" height="13.5" rx="3" fill="#161b22"><title>2026-03-04: 0 contribuições</title></rect><rect x="439.0" y="169.0" width="13.5" height="13.5" rx="3" fill="#161b22"><title>2026-03-05: 0 contribuições</title></rect><rect x="439.0" y="186.5" width="13.5" height="13.5" rx="3" fill="#1a695b"><title>2026-03-06: 3 contribuições</title></rect><rect x="439.0" y="204.0" width="13.5" height="13.5" rx="3" fill="#161b22"><title>2026-03-07: 0 contribuições</title></rect><rect x="456.5" y="99.0" width="13.5" height="13.5" rx="3" fill="#161b22"><title>2026-03-08: 0 contribuições</title></rect><rect x="456.5" y="116.5" width="13.5" height="13.5" rx="3" fill="#1a695b"><title>2026-03-09: 3 contribuições</title></rect><rect x="456.5" y="134.0" width="13.5" height="13.5" rx="3" fill="#161b22"><title>2026-03-10: 0 contribuições</title></rect><rect x="456.5" y="151.5" width="13.5" height="13.5" rx="3" fill="#161b22"><title>2026-03-11: 0 contribuições</title></rect><rect x="456.5" y="169.0" width="13.5" height="13.5" rx="3" fill="#161b22"><title>2026-03-12: 0 contribuições</title></rect><rect x="456.5" y="186.5" width="13.5" height="13.5" rx="3" fill="#1a695b"><title>2026-03-13: 3 contribuições</title></rect><rect x="456.5" y="204.0" width="13.5" height="13.5" rx="3" fill="#161b22"><title>2026-03-14: 0 contribuições</title></rect><rect x="474.0" y="99.0" width="13.5" height="13.5" rx="3" fill="#1a695b"><title>2026-03-15: 4 contribuições</title></rect><rect x="474.0" y="116.5" width="13.5" height="13.5" rx="3" fill="#1a695b"><title>2026-03-16: 3 contribuições</title></rect><rect x="474.0" y="134.0" width="13.5" height="13.5" rx="3" fill="#161b22"><title>2026-03-17: 0 contribuições</title></rect><rect x="474.0" y="151.5" width="13.5" height="13.5" rx="3" fill="#161b22"><title>2026-03-18: 0 contribuições</title></rect><rect x="474.0" y="169.0" width="13.5" height="13.5" rx="3" fill="#1a695b"><title>2026-03-19: 3 contribuições</title></rect><rect x="474.0" y="186.5" width="13.5" height="13.5" rx="3" fill="#163b37"><title>2026-03-20: 1 contribuições</title></rect><rect x="474.0" y="204.0" width="13.5" height="13.5" rx="3" fill="#161b22"><title>2026-03-21: 0 contribuições</title></rect><rect x="491.5" y="99.0" width="13.5" height="13.5" rx="3" fill="#161b22"><title>2026-03-22: 0 contribuições</title></rect><rect x="491.5" y="116.5" width="13.5" height="13.5" rx="3" fill="#163b37"><title>2026-03-23: 1 contribuições</title></rect><rect x="491.5" y="134.0" width="13.5" height="13.5" rx="3" fill="#161b22"><title>2026-03-24: 0 contribuições</title></rect><rect x="491.5" y="151.5" width="13.5" height="13.5" rx="3" fill="#161b22"><title>2026-03-25: 0 contribuições</title></rect><rect x="491.5" y="169.0" width="13.5" height="13.5" rx="3" fill="#161b22"><title>2026-03-26: 0 contribuições</title></rect><rect x="491.5" y="186.5" width="13.5" height="13.5" rx="3" fill="#163b37"><title>2026-03-27: 1 contribuições</title></rect><rect x="491.5" y="204.0" width="13.5" height="13.5" rx="3" fill="#161b22"><title>2026-03-28: 0 contribuições</title></rect><rect x="509.0" y="99.0" width="13.5" height="13.5" rx="3" fill="#163b37"><title>2026-03-29: 2 contribuições</title></rect><rect x="509.0" y="116.5" width="13.5" height="13.5" rx="3" fill="#161b22"><title>2026-03-30: 0 contribuições</title></rect><rect x="509.0" y="134.0" width="13.5" height="13.5" rx="3" fill="#161b22"><title>2026-03-31: 0 contribuições</title></rect><rect x="509.0" y="151.5" width="13.5" height="13.5" rx="3" fill="#161b22"><title>2026-04-01: 0 contribuições</title></rect><rect x="509.0" y="169.0" width="13.5" height="13.5" rx="3" fill="#161b22"><title>2026-04-02: 0 contribuições</title></rect><rect x="509.0" y="186.5" width="13.5" height="13.5" rx="3" fill="#161b22"><title>2026-04-03: 0 contribuições</title></rect><rect x="509.0" y="204.0" width="13.5" height="13.5" rx="3" fill="#161b22"><title>2026-04-04: 0 contribuições</title></rect><text x="526.5" y="86" font-size="10" fill="#94a3b8" font-weight="400" >abr</text><rect x="526.5" y="99.0" width="13.5" height="13.5" rx="3" fill="#161b22"><title>2026-04-05: 0 contribuições</title></rect><rect x="526.5" y="116.5" width="13.5" height="13.5" rx="3" fill="#161b22"><title>2026-04-06: 0 contribuições</title></rect><rect x="526.5" y="134.0" width="13.5" height="13.5" rx="3" fill="#161b22"><title>2026-04-07: 0 contribuições</title></rect><rect x="526.5" y="151.5" width="13.5" height="13.5" rx="3" fill="#161b22"><title>2026-04-08: 0 contribuições</title></rect><rect x="526.5" y="169.0" width="13.5" height="13.5" rx="3" fill="#161b22"><title>2026-04-09: 0 contribuições</title></rect><rect x="526.5" y="186.5" width="13.5" height="13.5" rx="3" fill="#161b22"><title>2026-04-10: 0 contribuições</title></rect><rect x="526.5" y="204.0" width="13.5" height="13.5" rx="3" fill="#161b22"><title>2026-04-11: 0 contribuições</title></rect><rect x="544.0" y="99.0" width="13.5" height="13.5" rx="3" fill="#161b22"><title>2026-04-12: 0 contribuições</title></rect><rect x="544.0" y="116.5" width="13.5" height="13.5" rx="3" fill="#161b22"><title>2026-04-13: 0 contribuições</title></rect><rect x="544.0" y="134.0" width="13.5" height="13.5" rx="3" fill="#161b22"><title>2026-04-14: 0 contribuições</title></rect><rect x="544.0" y="151.5" width="13.5" height="13.5" rx="3" fill="#161b22"><title>2026-04-15: 0 contribuições</title></rect><rect x="544.0" y="169.0" width="13.5" height="13.5" rx="3" fill="#163b37"><title>2026-04-16: 1 contribuições</title></rect><rect x="544.0" y="186.5" width="13.5" height="13.5" rx="3" fill="#161b22"><title>2026-04-17: 0 contribuições</title></rect><rect x="544.0" y="204.0" width="13.5" height="13.5" rx="3" fill="#161b22"><title>2026-04-18: 0 contribuições</title></rect><rect x="561.5" y="99.0" width="13.5" height="13.5" rx="3" fill="#161b22"><title>2026-04-19: 0 contribuições</title></rect><rect x="561.5" y="116.5" width="13.5" height="13.5" rx="3" fill="#161b22"><title>2026-04-20: 0 contribuições</title></rect><rect x="561.5" y="134.0" width="13.5" height="13.5" rx="3" fill="#161b22"><title>2026-04-21: 0 contribuições</title></rect><rect x="561.5" y="151.5" width="13.5" height="13.5" rx="3" fill="#161b22"><title>2026-04-22: 0 contribuições</title></rect><rect x="561.5" y="169.0" width="13.5" height="13.5" rx="3" fill="#161b22"><title>2026-04-23: 0 contribuições</title></rect><rect x="561.5" y="186.5" width="13.5" height="13.5" rx="3" fill="#161b22"><title>2026-04-24: 0 contribuições</title></rect><rect x="561.5" y="204.0" width="13.5" height="13.5" rx="3" fill="#161b22"><title>2026-04-25: 0 contribuições</title></rect><rect x="579.0" y="99.0" width="13.5" height="13.5" rx="3" fill="#161b22"><title>2026-04-26: 0 contribuições</title></rect><rect x="579.0" y="116.5" width="13.5" height="13.5" rx="3" fill="#161b22"><title>2026-04-27: 0 contribuições</title></rect><rect x="579.0" y="134.0" width="13.5" height="13.5" rx="3" fill="#161b22"><title>2026-04-28: 0 contribuições</title></rect><rect x="579.0" y="151.5" width="13.5" height="13.5" rx="3" fill="#161b22"><title>2026-04-29: 0 contribuições</title></rect><rect x="579.0" y="169.0" width="13.5" height="13.5" rx="3" fill="#161b22"><title>2026-04-30: 0 contribuições</title></rect><rect x="579.0" y="186.5" width="13.5" height="13.5" rx="3" fill="#163b37"><title>2026-05-01: 2 contribuições</title></rect><rect x="579.0" y="204.0" width="13.5" height="13.5" rx="3" fill="#161b22"><title>2026-05-02: 0 contribuições</title></rect><text x="596.5" y="86" font-size="10" fill="#94a3b8" font-weight="400" >mai</text><rect x="596.5" y="99.0" width="13.5" height="13.5" rx="3" fill="#163b37"><title>2026-05-03: 1 contribuições</title></rect><rect x="596.5" y="116.5" width="13.5" height="13.5" rx="3" fill="#161b22"><title>2026-05-04: 0 contribuições</title></rect><rect x="596.5" y="134.0" width="13.5" height="13.5" rx="3" fill="#161b22"><title>2026-05-05: 0 contribuições</title></rect><rect x="596.5" y="151.5" width="13.5" height="13.5" rx="3" fill="#161b22"><title>2026-05-06: 0 contribuições</title></rect><rect x="596.5" y="169.0" width="13.5" height="13.5" rx="3" fill="#161b22"><title>2026-05-07: 0 contribuições</title></rect><rect x="596.5" y="186.5" width="13.5" height="13.5" rx="3" fill="#161b22"><title>2026-05-08: 0 contribuições</title></rect><rect x="596.5" y="204.0" width="13.5" height="13.5" rx="3" fill="#161b22"><title>2026-05-09: 0 contribuições</title></rect><rect x="614.0" y="99.0" width="13.5" height="13.5" rx="3" fill="#161b22"><title>2026-05-10: 0 contribuições</title></rect><rect x="614.0" y="116.5" width="13.5" height="13.5" rx="3" fill="#161b22"><title>2026-05-11: 0 contribuições</title></rect><rect x="614.0" y="134.0" width="13.5" height="13.5" rx="3" fill="#161b22"><title>2026-05-12: 0 contribuições</title></rect><rect x="614.0" y="151.5" width="13.5" height="13.5" rx="3" fill="#161b22"><title>2026-05-13: 0 contribuições</title></rect><rect x="614.0" y="169.0" width="13.5" height="13.5" rx="3" fill="#161b22"><title>2026-05-14: 0 contribuições</title></rect><rect x="614.0" y="186.5" width="13.5" height="13.5" rx="3" fill="#161b22"><title>2026-05-15: 0 contribuições</title></rect><rect x="614.0" y="204.0" width="13.5" height="13.5" rx="3" fill="#161b22"><title>2026-05-16: 0 contribuições</title></rect><rect x="631.5" y="99.0" width="13.5" height="13.5" rx="3" fill="#161b22"><title>2026-05-17: 0 contribuições</title></rect><rect x="631.5" y="116.5" width="13.5" height="13.5" rx="3" fill="#161b22"><title>2026-05-18: 0 contribuições</title></rect><rect x="631.5" y="134.0" width="13.5" height="13.5" rx="3" fill="#161b22"><title>2026-05-19: 0 contribuições</title></rect><rect x="631.5" y="151.5" width="13.5" height="13.5" rx="3" fill="#161b22"><title>2026-05-20: 0 contribuições</title></rect><rect x="631.5" y="169.0" width="13.5" height="13.5" rx="3" fill="#161b22"><title>2026-05-21: 0 contribuições</title></rect><rect x="631.5" y="186.5" width="13.5" height="13.5" rx="3" fill="#161b22"><title>2026-05-22: 0 contribuições</title></rect><rect x="631.5" y="204.0" width="13.5" height="13.5" rx="3" fill="#161b22"><title>2026-05-23: 0 contribuições</title></rect><rect x="649.0" y="99.0" width="13.5" height="13.5" rx="3" fill="#161b22"><title>2026-05-24: 0 contribuições</title></rect><rect x="649.0" y="116.5" width="13.5" height="13.5" rx="3" fill="#163b37"><title>2026-05-25: 1 contribuições</title></rect><rect x="649.0" y="134.0" width="13.5" height="13.5" rx="3" fill="#1a695b"><title>2026-05-26: 3 contribuições</title></rect><rect x="649.0" y="151.5" width="13.5" height="13.5" rx="3" fill="#161b22"><title>2026-05-27: 0 contribuições</title></rect><rect x="649.0" y="169.0" width="13.5" height="13.5" rx="3" fill="#1a695b"><title>2026-05-28: 4 contribuições</title></rect><rect x="649.0" y="186.5" width="13.5" height="13.5" rx="3" fill="#1a695b"><title>2026-05-29: 3 contribuições</title></rect><rect x="649.0" y="204.0" width="13.5" height="13.5" rx="3" fill="#161b22"><title>2026-05-30: 0 contribuições</title></rect><rect x="666.5" y="99.0" width="13.5" height="13.5" rx="3" fill="#1a695b"><title>2026-05-31: 4 contribuições</title></rect><rect x="666.5" y="116.5" width="13.5" height="13.5" rx="3" fill="#5eead4"><title>2026-06-01: 11 contribuições</title></rect><rect x="666.5" y="134.0" width="13.5" height="13.5" rx="3" fill="#1a695b"><title>2026-06-02: 5 contribuições</title></rect><rect x="666.5" y="151.5" width="13.5" height="13.5" rx="3" fill="#1a695b"><title>2026-06-03: 3 contribuições</title></rect><rect x="666.5" y="169.0" width="13.5" height="13.5" rx="3" fill="#161b22"><title>2026-06-04: 0 contribuições</title></rect><rect x="666.5" y="186.5" width="13.5" height="13.5" rx="3" fill="#161b22"><title>2026-06-05: 0 contribuições</title></rect><rect x="666.5" y="204.0" width="13.5" height="13.5" rx="3" fill="#161b22"><title>2026-06-06: 0 contribuições</title></rect><text x="684.0" y="86" font-size="10" fill="#94a3b8" font-weight="400" >jun</text><rect x="684.0" y="99.0" width="13.5" height="13.5" rx="3" fill="#161b22"><title>2026-06-07: 0 contribuições</title></rect><rect x="684.0" y="116.5" width="13.5" height="13.5" rx="3" fill="#161b22"><title>2026-06-08: 0 contribuições</title></rect><rect x="684.0" y="134.0" width="13.5" height="13.5" rx="3" fill="#161b22"><title>2026-06-09: 0 contribuições</title></rect><rect x="684.0" y="151.5" width="13.5" height="13.5" rx="3" fill="#161b22"><title>2026-06-10: 0 contribuições</title></rect><rect x="684.0" y="169.0" width="13.5" height="13.5" rx="3" fill="#161b22"><title>2026-06-11: 0 contribuições</title></rect><rect x="684.0" y="186.5" width="13.5" height="13.5" rx="3" fill="#161b22"><title>2026-06-12: 0 contribuições</title></rect><rect x="684.0" y="204.0" width="13.5" height="13.5" rx="3" fill="#163b37"><title>2026-06-13: 2 contribuições</title></rect><rect x="701.5" y="99.0" width="13.5" height="13.5" rx="3" fill="#161b22"><title>2026-06-14: 0 contribuições</title></rect><rect x="701.5" y="116.5" width="13.5" height="13.5" rx="3" fill="#161b22"><title>2026-06-15: 0 contribuições</title></rect><rect x="701.5" y="134.0" width="13.5" height="13.5" rx="3" fill="#161b22"><title>2026-06-16: 0 contribuições</title></rect><rect x="701.5" y="151.5" width="13.5" height="13.5" rx="3" fill="#161b22"><title>2026-06-17: 0 contribuições</title></rect><rect x="701.5" y="169.0" width="13.5" height="13.5" rx="3" fill="#161b22"><title>2026-06-18: 0 contribuições</title></rect><rect x="701.5" y="186.5" width="13.5" height="13.5" rx="3" fill="#161b22"><title>2026-06-19: 0 contribuições</title></rect><rect x="701.5" y="204.0" width="13.5" height="13.5" rx="3" fill="#1a695b"><title>2026-06-20: 3 contribuições</title></rect><rect x="719.0" y="99.0" width="13.5" height="13.5" rx="3" fill="#161b22"><title>2026-06-21: 0 contribuições</title></rect><rect x="719.0" y="116.5" width="13.5" height="13.5" rx="3" fill="#161b22"><title>2026-06-22: 0 contribuições</title></rect><rect x="719.0" y="134.0" width="13.5" height="13.5" rx="3" fill="#1a695b"><title>2026-06-23: 6 contribuições</title></rect><rect x="719.0" y="151.5" width="13.5" height="13.5" rx="3" fill="#161b22"><title>2026-06-24: 0 contribuições</title></rect><rect x="719.0" y="169.0" width="13.5" height="13.5" rx="3" fill="#161b22"><title>2026-06-25: 0 contribuições</title></rect><rect x="719.0" y="186.5" width="13.5" height="13.5" rx="3" fill="#161b22"><title>2026-06-26: 0 contribuições</title></rect><rect x="719.0" y="204.0" width="13.5" height="13.5" rx="3" fill="#161b22"><title>2026-06-27: 0 contribuições</title></rect><rect x="736.5" y="99.0" width="13.5" height="13.5" rx="3" fill="#161b22"><title>2026-06-28: 0 contribuições</title></rect><rect x="736.5" y="116.5" width="13.5" height="13.5" rx="3" fill="#161b22"><title>2026-06-29: 0 contribuições</title></rect><rect x="736.5" y="134.0" width="13.5" height="13.5" rx="3" fill="#161b22"><title>2026-06-30: 0 contribuições</title></rect><rect x="736.5" y="151.5" width="13.5" height="13.5" rx="3" fill="#161b22"><title>2026-07-01: 0 contribuições</title></rect><rect x="736.5" y="169.0" width="13.5" height="13.5" rx="3" fill="#161b22"><title>2026-07-02: 0 contribuições</title></rect><rect x="736.5" y="186.5" width="13.5" height="13.5" rx="3" fill="#161b22"><title>2026-07-03: 0 contribuições</title></rect><rect x="736.5" y="204.0" width="13.5" height="13.5" rx="3" fill="#161b22"><title>2026-07-04: 0 contribuições</title></rect><text x="754.0" y="86" font-size="10" fill="#94a3b8" font-weight="400" >jul</text><rect x="754.0" y="99.0" width="13.5" height="13.5" rx="3" fill="#161b22"><title>2026-07-05: 0 contribuições</title></rect><rect x="754.0" y="116.5" width="13.5" height="13.5" rx="3" fill="#161b22"><title>2026-07-06: 0 contribuições</title></rect><rect x="754.0" y="134.0" width="13.5" height="13.5" rx="3" fill="#161b22"><title>2026-07-07: 0 contribuições</title></rect><rect x="754.0" y="151.5" width="13.5" height="13.5" rx="3" fill="#161b22"><title>2026-07-08: 0 contribuições</title></rect><rect x="754.0" y="169.0" width="13.5" height="13.5" rx="3" fill="#161b22"><title>2026-07-09: 0 contribuições</title></rect><rect x="754.0" y="186.5" width="13.5" height="13.5" rx="3" fill="#161b22"><title>2026-07-10: 0 contribuições</title></rect><rect x="754.0" y="204.0" width="13.5" height="13.5" rx="3" fill="#161b22"><title>2026-07-11: 0 contribuições</title></rect><rect x="771.5" y="99.0" width="13.5" height="13.5" rx="3" fill="#1a695b"><title>2026-07-12: 5 contribuições</title></rect><rect x="771.5" y="116.5" width="13.5" height="13.5" rx="3" fill="#163b37"><title>2026-07-13: 1 contribuições</title></rect><rect x="771.5" y="134.0" width="13.5" height="13.5" rx="3" fill="#161b22"><title>2026-07-14: 0 contribuições</title></rect><rect x="771.5" y="151.5" width="13.5" height="13.5" rx="3" fill="#161b22"><title>2026-07-15: 0 contribuições</title></rect><rect x="771.5" y="169.0" width="13.5" height="13.5" rx="3" fill="#1a695b"><title>2026-07-16: 3 contribuições</title></rect><rect x="771.5" y="186.5" width="13.5" height="13.5" rx="3" fill="#161b22"><title>2026-07-17: 0 contribuições</title></rect><rect x="771.5" y="204.0" width="13.5" height="13.5" rx="3" fill="#161b22"><title>2026-07-18: 0 contribuições</title></rect><rect x="789.0" y="99.0" width="13.5" height="13.5" rx="3" fill="#161b22"><title>2026-07-19: 0 contribuições</title></rect><rect x="789.0" y="116.5" width="13.5" height="13.5" rx="3" fill="#1a695b"><title>2026-07-20: 4 contribuições</title></rect><rect x="789.0" y="134.0" width="13.5" height="13.5" rx="3" fill="#1a695b"><title>2026-07-21: 6 contribuições</title></rect><rect x="789.0" y="151.5" width="13.5" height="13.5" rx="3" fill="#1a695b"><title>2026-07-22: 6 contribuições</title></rect><rect x="789.0" y="169.0" width="13.5" height="13.5" rx="3" fill="#26a98b"><title>2026-07-23: 8 contribuições</title></rect><rect x="789.0" y="186.5" width="13.5" height="13.5" rx="3" fill="#163b37"><title>2026-07-24: 1 contribuições</title></rect><rect x="789.0" y="204.0" width="13.5" height="13.5" rx="3" fill="#161b22"><title>2026-07-25: 0 contribuições</title></rect><rect x="806.5" y="99.0" width="13.5" height="13.5" rx="3" fill="#161b22"><title>2026-07-26: 0 contribuições</title></rect><rect x="806.5" y="116.5" width="13.5" height="13.5" rx="3" fill="#161b22"><title>2026-07-27: 0 contribuições</title></rect><rect x="806.5" y="134.0" width="13.5" height="13.5" rx="3" fill="#161b22"><title>2026-07-28: 0 contribuições</title></rect><rect x="806.5" y="151.5" width="13.5" height="13.5" rx="3" fill="#161b22"><title>2026-07-29: 0 contribuições</title></rect><rect x="806.5" y="169.0" width="13.5" height="13.5" rx="3" fill="#161b22"><title>2026-07-30: 0 contribuições</title></rect><rect x="806.5" y="186.5" width="13.5" height="13.5" rx="3" fill="#161b22"><title>2026-07-31: 0 contribuições</title></rect><rect x="806.5" y="204.0" width="13.5" height="13.5" rx="3" fill="#161b22"><title>2026-08-01: 0 contribuições</title></rect><text x="824.0" y="86" font-size="10" fill="#94a3b8" font-weight="400" >ago</text><rect x="824.0" y="99.0" width="13.5" height="13.5" rx="3" fill="#163b37"><title>2026-08-02: 2 contribuições</title></rect><rect x="824.0" y="116.5" width="13.5" height="13.5" rx="3" fill="#161b22"><title>2026-08-03: 0 contribuições</title></rect><rect x="824.0" y="134.0" width="13.5" height="13.5" rx="3" fill="#161b22"><title>2026-08-04: 0 contribuições</title></rect><rect x="824.0" y="151.5" width="13.5" height="13.5" rx="3" fill="#161b22"><title>2026-08-05: 0 contribuições</title></rect><rect x="824.0" y="169.0" width="13.5" height="13.5" rx="3" fill="#161b22"><title>2026-08-06: 0 contribuições</title></rect><rect x="824.0" y="186.5" width="13.5" height="13.5" rx="3" fill="#161b22"><title>2026-08-07: 0 contribuições</title></rect><rect x="824.0" y="204.0" width="13.5" height="13.5" rx="3" fill="#161b22"><title>2026-08-08: 0 contribuições</title></rect><rect x="841.5" y="99.0" width="13.5" height="13.5" rx="3" fill="#161b22"><title>2026-08-09: 0 contribuições</title></rect><rect x="841.5" y="116.5" width="13.5" height="13.5" rx="3" fill="#161b22"><title>2026-08-10: 0 contribuições</title></rect><rect x="841.5" y="134.0" width="13.5" height="13.5" rx="3" fill="#161b22"><title>2026-08-11: 0 contribuições</title></rect><rect x="841.5" y="151.5" width="13.5" height="13.5" rx="3" fill="#161b22"><title>2026-08-12: 0 contribuições</title></rect><rect x="841.5" y="169.0" width="13.5" height="13.5" rx="3" fill="#161b22"><title>2026-08-13: 0 contribuições</title></rect><rect x="841.5" y="186.5" width="13.5" height="13.5" rx="3" fill="#161b22"><title>2026-08-14: 0 contribuições</title></rect><rect x="841.5" y="204.0" width="13.5" height="13.5" rx="3" fill="#161b22"><title>2026-08-15: 0 contribuições</title></rect><rect x="859.0" y="99.0" width="13.5" height="13.5" rx="3" fill="#161b22"><title>2026-08-16: 0 contribuições</title></rect><rect x="859.0" y="116.5" width="13.5" height="13.5" rx="3" fill="#161b22"><title>2026-08-17: 0 contribuições</title></rect><rect x="859.0" y="134.0" width="13.5" height="13.5" rx="3" fill="#161b22"><title>2026-08-18: 0 contribuições</title></rect><rect x="859.0" y="151.5" width="13.5" height="13.5" rx="3" fill="#161b22"><title>2026-08-19: 0 contribuições</title></rect><rect x="859.0" y="169.0" width="13.5" height="13.5" rx="3" fill="#161b22"><title>2026-08-20: 0 contribuições</title></rect><rect x="859.0" y="186.5" width="13.5" height="13.5" rx="3" fill="#161b22"><title>2026-08-21: 0 contribuições</title></rect><rect x="859.0" y="204.0" width="13.5" height="13.5" rx="3" fill="#161b22"><title>2026-08-22: 0 contribuições</title></rect><rect x="876.5" y="99.0" width="13.5" height="13.5" rx="3" fill="#161b22"><title>2026-08-23: 0 contribuições</title></rect><rect x="876.5" y="116.5" width="13.5" height="13.5" rx="3" fill="#161b22"><title>2026-08-24: 0 contribuições</title></rect><rect x="876.5" y="134.0" width="13.5" height="13.5" rx="3" fill="#161b22"><title>2026-08-25: 0 contribuições</title></rect><rect x="876.5" y="151.5" width="13.5" height="13.5" rx="3" fill="#163b37"><title>2026-08-26: 2 contribuições</title></rect><rect x="876.5" y="169.0" width="13.5" height="13.5" rx="3" fill="#161b22"><title>2026-08-27: 0 contribuições</title></rect><rect x="876.5" y="186.5" width="13.5" height="13.5" rx="3" fill="#161b22"><title>2026-08-28: 0 contribuições</title></rect><rect x="876.5" y="204.0" width="13.5" height="13.5" rx="3" fill="#1a695b"><title>2026-08-29: 6 contribuições</title></rect><rect x="894.0" y="99.0" width="13.5" height="13.5" rx="3" fill="#26a98b"><title>2026-08-30: 7 contribuições</title></rect><rect x="894.0" y="116.5" width="13.5" height="13.5" rx="3" fill="#161b22"><title>2026-08-31: 0 contribuições</title></rect><rect x="894.0" y="134.0" width="13.5" height="13.5" rx="3" fill="#161b22"><title>2026-09-01: 0 contribuições</title></rect><rect x="894.0" y="151.5" width="13.5" height="13.5" rx="3" fill="#161b22"><title>2026-09-02: 0 contribuições</title></rect><rect x="894.0" y="169.0" width="13.5" height="13.5" rx="3" fill="#161b22"><title>2026-09-03: 0 contribuições</title></rect><rect x="894.0" y="186.5" width="13.5" height="13.5" rx="3" fill="#161b22"><title>2026-09-04: 0 contribuições</title></rect><rect x="894.0" y="204.0" width="13.5" height="13.5" rx="3" fill="#161b22"><title>2026-09-05: 0 contribuições</title></rect><text x="911.5" y="86" font-size="10" fill="#94a3b8" font-weight="400" >set</text><rect x="911.5" y="99.0" width="13.5" height="13.5" rx="3" fill="#161b22"><title>2026-09-06: 0 contribuições</title></rect><rect x="911.5" y="116.5" width="13.5" height="13.5" rx="3" fill="#161b22"><title>2026-09-07: 0 contribuições</title></rect><rect x="911.5" y="134.0" width="13.5" height="13.5" rx="3" fill="#161b22"><title>2026-09-08: 0 contribuições</title></rect><rect x="911.5" y="151.5" width="13.5" height="13.5" rx="3" fill="#161b22"><title>2026-09-09: 0 contribuições</title></rect><rect x="911.5" y="169.0" width="13.5" height="13.5" rx="3" fill="#161b22"><title>2026-09-10: 0 contribuições</title></rect><rect x="911.5" y="186.5" width="13.5" height="13.5" rx="3" fill="#161b22"><title>2026-09-11: 0 contribuições</title></rect><rect x="911.5" y="204.0" width="13.5" height="13.5" rx="3" fill="#161b22"><title>2026-09-12: 0 contribuições</title></rect><rect x="929.0" y="99.0" width="13.5" height="13.5" rx="3" fill="#161b22"><title>2026-09-13: 0 contribuições</title></rect><rect x="929.0" y="116.5" width="13.5" height="13.5" rx="3" fill="#1a695b"><title>2026-09-14: 4 contribuições</title></rect><rect x="929.0" y="134.0" width="13.5" height="13.5" rx="3" fill="#161b22"><title>2026-09-15: 0 contribuições</title></rect><rect x="929.0" y="151.5" width="13.5" height="13.5" rx="3" fill="#161b22"><title>2026-09-16: 0 contribuições</title></rect><rect x="929.0" y="169.0" width="13.5" height="13.5" rx="3" fill="#161b22"><title>2026-09-17: 0 contribuições</title></rect><rect x="929.0" y="186.5" width="13.5" height="13.5" rx="3" fill="#161b22"><title>2026-09-18: 0 contribuições</title></rect><rect x="929.0" y="204.0" width="13.5" height="13.5" rx="3" fill="#161b22"><title>2026-09-19: 0 contribuições</title></rect><rect x="946.5" y="99.0" width="13.5" height="13.5" rx="3" fill="#161b22"><title>2026-09-20: 0 contribuições</title></rect><rect x="946.5" y="116.5" width="13.5" height="13.5" rx="3" fill="#161b22"><title>2026-09-21: 0 contribuições</title></rect><rect x="946.5" y="134.0" width="13.5" height="13.5" rx="3" fill="#161b22"><title>2026-09-22: 0 contribuições</title></rect><rect x="946.5" y="151.5" width="13.5" height="13.5" rx="3" fill="#161b22"><title>2026-09-23: 0 contribuições</title></rect><rect x="946.5" y="169.0" width="13.5" height="13.5" rx="3" fill="#161b22"><title>2026-09-24: 0 contribuições</title></rect><rect x="946.5" y="186.5" width="13.5" height="13.5" rx="3" fill="#163b37"><title>2026-09-25: 2 contribuições</title></rect><rect x="946.5" y="204.0" width="13.5" height="13.5" rx="3" fill="#161b22"><title>2026-09-26: 0 contribuições</title></rect><rect x="964.0" y="99.0" width="13.5" height="13.5" rx="3" fill="#161b22"><title>2026-09-27: 0 contribuições</title></rect><rect x="964.0" y="116.5" width="13.5" height="13.5" rx="3" fill="#163b37"><title>2026-09-28: 2 contribuições</title></rect><text x="26" y="127.5" font-size="10" fill="#94a3b8" font-weight="400" >seg</text><text x="26" y="162.5" font-size="10" fill="#94a3b8" font-weight="400" >qua</text><text x="26" y="197.5" font-size="10" fill="#94a3b8" font-weight="400" >sex</text><text x="26" y="249" font-size="11" fill="#94a3b8" font-weight="400" >Fonte: GitHub · Atualização semanal</text><text x="850" y="249" font-size="10" fill="#94a3b8" font-weight="400" >Menos</text><rect x="890" y="239" width="12" height="12" rx="2" fill="#161b22"/><rect x="907" y="239" width="12" height="12" rx="2" fill="#163b37"/><rect x="924" y="239" width="12" height="12" rx="2" fill="#1a695b"/><rect x="941" y="239" width="12" height="12" rx="2" fill="#26a98b"/><rect x="958" y="239" width="12" height="12" rx="2" fill="#5eead4"/><text x="984" y="249" font-size="10" fill="#94a3b8" font-weight="400" >Mais</text></g></svg>